<svg width="32" height="32" viewBox="0 0 42 42" fill="none" xmlns="http://www.w3.org/2000/svg">
<circle cx="19.56" cy="12.76" r="4.76" stroke="#000932" stroke-width="2"/>
<path fill-rule="evenodd" clip-rule="evenodd" d="M28.12 30.04C28.12 30.04 28.12 30.04 28.12 30.04C28.12 25.3124 24.2876 21.48 19.56 21.48C14.8324 21.48 11 25.3124 11 30.04C11 30.04 11 30.04 11 30.04H9C9 30.04 9 30.04 9 30.04C9 24.2079 13.7279 19.48 19.56 19.48C25.3921 19.48 30.12 24.2079 30.12 30.04C30.12 30.04 30.12 30.04 30.12 30.04H28.12Z" fill="#000932"/>
<mask id="path-3-inside-1_47_223" fill="white">
<path d="M13.8 25.36C13.8 23.7031 15.1431 22.36 16.8 22.36H30C31.6568 22.36 33 23.7031 33 25.36V33.0933C33 33.6456 32.5523 34.0933 32 34.0933H14.8C14.2477 34.0933 13.8 33.6456 13.8 33.0933V25.36Z"/>
</mask>
<path d="M13.8 25.36C13.8 23.7031 15.1431 22.36 16.8 22.36H30C31.6568 22.36 33 23.7031 33 25.36V33.0933C33 33.6456 32.5523 34.0933 32 34.0933H14.8C14.2477 34.0933 13.8 33.6456 13.8 33.0933V25.36Z" fill="white" stroke="#EB4511" stroke-width="3" mask="url(#path-3-inside-1_47_223)"/>
</svg>
