<svg width="42" height="42" viewBox="0 0 42 42" fill="none" xmlns="http://www.w3.org/2000/svg">
<path d="M15.0085 21.2424C15.0675 22.3703 16.0481 23.2256 17.1735 23.1309L26.3039 22.3623C26.9629 22.3068 27.5519 21.9292 27.8773 21.3535L29.5994 18.3067C30.353 16.9734 29.3898 15.3226 27.8583 15.3226H16.8062C15.6606 15.3226 14.7491 16.283 14.8089 17.427L15.0085 21.2424Z" stroke="white" stroke-width="2"/>
<path d="M27.5807 25.9355H16.3698C14.8994 25.9355 14.3402 24.0152 15.5807 23.2258V23.2258" stroke="white" stroke-width="2"/>
<path d="M18.5645 28.3039C18.5645 27.7642 18.1094 27.3013 17.5162 27.3013C16.9229 27.3013 16.4678 27.7642 16.4678 28.3039C16.4678 28.8435 16.9229 29.3065 17.5162 29.3065C18.1094 29.3065 18.5645 28.8435 18.5645 28.3039Z" stroke="white"/>
<path d="M25.6252 28.3039C25.6252 27.7642 25.1701 27.3013 24.5768 27.3013C23.9836 27.3013 23.5284 27.7642 23.5284 28.3039C23.5284 28.8435 23.9836 29.3065 24.5768 29.3065C25.1701 29.3065 25.6252 28.8435 25.6252 28.3039Z" stroke="white"/>
<path d="M9 12L13.2581 12.7742L14.8065 14.7097" stroke="white" stroke-width="2" stroke-linecap="round"/>
</svg>
