<svg width="42" height="42" viewBox="0 0 42 42" fill="none" xmlns="http://www.w3.org/2000/svg">
<path fill-rule="evenodd" clip-rule="evenodd" d="M34.6849 18C34.6849 16.8954 33.7895 16 32.6849 16H25.2319V14H32.6849C34.8941 14 36.6849 15.7909 36.6849 18V24C36.6849 26.2091 34.8941 28 32.6849 28H30.3385L30.3385 26H32.6849C33.7895 26 34.6849 25.1046 34.6849 24V18ZM24.8826 26L26.7135 27.8426L26.8699 28H24.1157H19.5209C17.3117 28 15.5209 26.2091 15.5209 24V22.9946H17.5209V24C17.5209 25.1046 18.4163 26 19.5209 26H24.1157H24.8826Z" fill="#EB4511"/>
<path d="M31 26V31L27 27H23" stroke="#EB4511" stroke-width="2"/>
<path fill-rule="evenodd" clip-rule="evenodd" d="M8 13H23.0411C23.5934 13 24.0411 13.4477 24.0411 14V14.8945V22C24.0411 22.5523 23.5934 23 23.0411 23H17.366L16.1135 24.4546L15.6439 25H23.0411C24.698 25 26.0411 23.6569 26.0411 22V14.8945V14C26.0411 12.3431 24.698 11 23.0411 11H8C6.34315 11 5 12.3431 5 14V22C5 23.6569 6.34315 25 8 25H11.2603L11.2603 23H8C7.44772 23 7 22.5523 7 22V14C7 13.4477 7.44772 13 8 13ZM13.2603 24.4546L13.2603 24.7031L13.4742 24.4546H13.2603Z" fill="#000932"/>
<path fill-rule="evenodd" clip-rule="evenodd" d="M8 13H23.0411C23.5934 13 24.0411 13.4477 24.0411 14V14.8945V22C24.0411 22.5523 23.5934 23 23.0411 23H17.366L16.1135 24.4546L15.6439 25H23.0411C24.698 25 26.0411 23.6569 26.0411 22V14.8945V14C26.0411 12.3431 24.698 11 23.0411 11H8C6.34315 11 5 12.3431 5 14V22C5 23.6569 6.34315 25 8 25H11.2603L11.2603 23H8C7.44772 23 7 22.5523 7 22V14C7 13.4477 7.44772 13 8 13ZM13.2603 24.4546L13.2603 24.7031L13.4742 24.4546H13.2603Z" fill="black" fill-opacity="0.2"/>
<path d="M10.2603 23L10.2603 28.0959L14.5 24H19" stroke="#000932" stroke-width="2"/>
</svg>
