<svg width="42" height="42" viewBox="0 0 42 42" fill="none" xmlns="http://www.w3.org/2000/svg">
<path d="M12.393 17.36H27.908C28.9514 17.36 29.8195 18.1621 29.9018 19.2022L30.747 29.8822C30.839 31.0453 29.92 32.04 28.7532 32.04H11.3173C10.1335 32.04 9.20877 31.0174 9.3274 29.8396L10.4031 19.1596C10.506 18.1378 11.3661 17.36 12.393 17.36Z" stroke="white" stroke-width="2"/>
<mask id="path-2-inside-1_140_237" fill="white">
<path fill-rule="evenodd" clip-rule="evenodd" d="M23.0927 19.84C23.288 18.9088 23.4 17.878 23.4 16.78C23.4 14.3518 22.8523 12.2525 22.0675 10.8312C21.2439 9.33961 20.4287 9 20 9C19.5713 9 18.756 9.33961 17.9324 10.8312C17.1477 12.2525 16.6 14.3518 16.6 16.78C16.6 17.878 16.712 18.9088 16.9072 19.84H14.8696C14.6946 18.8774 14.6 17.8487 14.6 16.78C14.6 11.3787 17.0176 7 20 7C22.9823 7 25.4 11.3787 25.4 16.78C25.4 17.8487 25.3053 18.8774 25.1304 19.84H23.0927Z"/>
</mask>
<path fill-rule="evenodd" clip-rule="evenodd" d="M23.0927 19.84C23.288 18.9088 23.4 17.878 23.4 16.78C23.4 14.3518 22.8523 12.2525 22.0675 10.8312C21.2439 9.33961 20.4287 9 20 9C19.5713 9 18.756 9.33961 17.9324 10.8312C17.1477 12.2525 16.6 14.3518 16.6 16.78C16.6 17.878 16.712 18.9088 16.9072 19.84H14.8696C14.6946 18.8774 14.6 17.8487 14.6 16.78C14.6 11.3787 17.0176 7 20 7C22.9823 7 25.4 11.3787 25.4 16.78C25.4 17.8487 25.3053 18.8774 25.1304 19.84H23.0927Z" fill="white"/>
<path d="M23.0927 19.84L22.114 19.6348L21.8613 20.84H23.0927V19.84ZM22.0675 10.8312L22.9429 10.3479L22.9429 10.3479L22.0675 10.8312ZM17.9324 10.8312L18.8079 11.3146L18.8079 11.3146L17.9324 10.8312ZM16.9072 19.84V20.84H18.1387L17.886 19.6348L16.9072 19.84ZM14.8696 19.84L13.8857 20.0188L14.0349 20.84H14.8696V19.84ZM25.1304 19.84V20.84H25.965L26.1143 20.0188L25.1304 19.84ZM24.0714 20.0452C24.2812 19.0449 24.4 17.9453 24.4 16.78H22.4C22.4 17.8107 22.2948 18.7726 22.114 19.6348L24.0714 20.0452ZM24.4 16.78C24.4 14.2155 23.8239 11.9433 22.9429 10.3479L21.1921 11.3146C21.8807 12.5616 22.4 14.4882 22.4 16.78H24.4ZM22.9429 10.3479C22.0352 8.70384 20.9498 8 20 8V10C19.9076 10 20.4527 9.97538 21.1921 11.3146L22.9429 10.3479ZM20 8C19.0502 8 17.9648 8.70384 17.057 10.3479L18.8079 11.3146C19.5473 9.97538 20.0923 10 20 10V8ZM17.057 10.3479C16.1761 11.9433 15.6 14.2155 15.6 16.78H17.6C17.6 14.4882 18.1193 12.5616 18.8079 11.3146L17.057 10.3479ZM15.6 16.78C15.6 17.9453 15.7188 19.0449 15.9285 20.0452L17.886 19.6348C17.7052 18.7726 17.6 17.8107 17.6 16.78H15.6ZM14.8696 20.84H16.9072V18.84H14.8696V20.84ZM13.6 16.78C13.6 17.9073 13.6998 18.9958 13.8857 20.0188L15.8534 19.6612C15.6895 18.7589 15.6 17.7901 15.6 16.78H13.6ZM20 6C17.9776 6 16.3602 7.47219 15.3062 9.38113C14.2327 11.3253 13.6 13.9431 13.6 16.78H15.6C15.6 14.2156 16.176 11.9434 17.057 10.3479C17.9574 8.71714 19.04 8 20 8V6ZM26.4 16.78C26.4 13.9431 25.7672 11.3253 24.6938 9.38113C23.6398 7.47219 22.0224 6 20 6V8C20.9599 8 22.0425 8.71714 22.9429 10.3479C23.8239 11.9434 24.4 14.2156 24.4 16.78H26.4ZM26.1143 20.0188C26.3002 18.9958 26.4 17.9073 26.4 16.78H24.4C24.4 17.7901 24.3105 18.7589 24.1465 19.6612L26.1143 20.0188ZM23.0927 20.84H25.1304V18.84H23.0927V20.84Z" fill="white" mask="url(#path-2-inside-1_140_237)"/>
<circle cx="15.44" cy="19.6" r="0.72" fill="white"/>
<circle cx="24.56" cy="19.6" r="0.72" fill="white"/>
</svg>
