<svg width="42" height="42" viewBox="0 0 42 42" fill="none" xmlns="http://www.w3.org/2000/svg">
<path d="M4 13.4501L15.3333 13.4501" stroke="#EB4511" stroke-width="1.5" stroke-linecap="round"/>
<path d="M5.78952 18.0499L15.3334 18.0499" stroke="#EB4511" stroke-width="1.5" stroke-linecap="round"/>
<path d="M6.98245 22.65H15.3333" stroke="#EB4511" stroke-width="1.5" stroke-linecap="round"/>
<path d="M30.8329 15.6H33.0565C33.8556 15.6 34.5779 16.0757 34.8937 16.8097L36.8372 21.3276C36.9446 21.5772 37 21.8462 37 22.1179V25.4C37 26.5046 36.1046 27.4 35 27.4H30.6732C29.5526 27.4 28.6507 26.4795 28.6736 25.3591L28.8333 17.5591C28.8556 16.4707 29.7443 15.6 30.8329 15.6Z" stroke="#000932" stroke-width="2"/>
<circle r="1.75" transform="matrix(1 0 0 -1 20.6667 30.5)" stroke="#EB4511" stroke-width="1.5"/>
<circle r="1.75" transform="matrix(1 0 0 -1 32.9444 30.364)" stroke="#EB4511" stroke-width="1.5"/>
<path d="M33.2778 19.775L35.6389 19.775" stroke="#000932" stroke-width="2" stroke-linecap="round"/>
<path d="M17.7337 11H26.5C27.6046 11 28.5 11.8954 28.5 13V25.4C28.5 26.5046 27.6046 27.4 26.5 27.4H17.4567C16.3346 27.4 15.4321 26.4771 15.4572 25.3553L15.7342 12.9553C15.7584 11.8684 16.6465 11 17.7337 11Z" stroke="#000932" stroke-width="2"/>
</svg>
