<svg width="42" height="42" viewBox="0 0 42 42" fill="none" xmlns="http://www.w3.org/2000/svg">
<g clip-path="url(#clip0_47_208)">
<path d="M13.6523 25.5L13.141 26.5875L11.1523 31.175L15.1297 30.0976L16.6572 33.5614L19.1523 28" stroke="#EB4511" stroke-width="1.5" stroke-linecap="round"/>
<path d="M25.1522 24.4841L25.9866 26.6851L27.9753 31.2725L23.9979 30.1952L22.4703 33.659L20.1522 27.5" stroke="#EB4511" stroke-width="1.5" stroke-linecap="round"/>
<path d="M10.8622 22.1312L10.1319 21.6963L10.8622 22.1312L10.9802 21.9332C11.657 20.7966 11.2629 19.3256 10.1084 18.6798L9.90725 18.5673C9.46371 18.3191 9.46371 17.6809 9.90725 17.4327L9.50611 16.7157L9.90725 17.4327L10.1084 17.3202C11.2629 16.6744 11.657 15.2034 10.9802 14.0668L10.8622 13.8688C10.6022 13.4321 10.9213 12.8793 11.4295 12.8862L11.66 12.8894C12.9827 12.9073 14.0595 11.8304 14.0416 10.5077L14.0385 10.2772C14.0316 9.76905 14.5844 9.44991 15.021 9.70996L15.2191 9.82792C16.3556 10.5048 17.8266 10.1106 18.4724 8.95619L18.585 8.755C18.8331 8.31146 19.4714 8.31146 19.7195 8.755L20.4366 8.35386L19.7195 8.755L19.8321 8.9562C20.4779 10.1106 21.9489 10.5048 23.0854 9.82792L23.2835 9.70996C23.7201 9.44991 24.2729 9.76905 24.266 10.2772L24.2629 10.5077C24.245 11.8304 25.3218 12.9073 26.6445 12.8894L26.875 12.8862C27.3832 12.8793 27.7023 13.4321 27.4423 13.8688L27.3243 14.0668C26.6475 15.2034 27.0416 16.6744 28.1961 17.3202L28.3973 17.4327C28.8408 17.6809 28.8408 18.3191 28.3973 18.5673L28.1961 18.6798C27.0416 19.3256 26.6475 20.7966 27.3243 21.9332L27.4423 22.1312C27.7023 22.5679 27.3832 23.1206 26.875 23.1138L26.6445 23.1106C25.3218 23.0927 24.245 24.1696 24.2629 25.4923L24.266 25.7228C24.2729 26.231 23.7201 26.5501 23.2835 26.29L23.0854 26.1721C21.9489 25.4952 20.4779 25.8894 19.8321 27.0438L19.7195 27.245C19.4714 27.6885 18.8331 27.6885 18.585 27.245L18.4724 27.0438C17.8266 25.8894 16.3556 25.4952 15.2191 26.1721L15.021 26.29C14.5844 26.5501 14.0316 26.231 14.0385 25.7228L14.0416 25.4923C14.0595 24.1696 12.9827 23.0927 11.66 23.1106L11.4295 23.1138C10.9213 23.1206 10.6022 22.5679 10.8622 22.1312Z" stroke="#000932" stroke-width="1.7"/>
<path d="M18.149 19.19L21.1522 16.7985" stroke="#EB4511" stroke-width="1.7" stroke-linecap="round"/>
<path d="M18.149 19.19L17.1522 17.975" stroke="#EB4511" stroke-width="1.7" stroke-linecap="round"/>
<g filter="url(#filter0_d_47_208)">
<circle cx="19.1523" cy="18" r="5.25" stroke="#000932" stroke-width="1.5" shape-rendering="crispEdges"/>
</g>
</g>
<defs>
<filter id="filter0_d_47_208" x="9.15225" y="12" width="20" height="20" filterUnits="userSpaceOnUse" color-interpolation-filters="sRGB">
<feFlood flood-opacity="0" result="BackgroundImageFix"/>
<feColorMatrix in="SourceAlpha" type="matrix" values="0 0 0 0 0 0 0 0 0 0 0 0 0 0 0 0 0 0 127 0" result="hardAlpha"/>
<feOffset dy="4"/>
<feGaussianBlur stdDeviation="2"/>
<feComposite in2="hardAlpha" operator="out"/>
<feColorMatrix type="matrix" values="0 0 0 0 0 0 0 0 0 0 0 0 0 0 0 0 0 0 0.25 0"/>
<feBlend mode="normal" in2="BackgroundImageFix" result="effect1_dropShadow_47_208"/>
<feBlend mode="normal" in="SourceGraphic" in2="effect1_dropShadow_47_208" result="shape"/>
</filter>
<clipPath id="clip0_47_208">
<rect width="41.1224" height="42" fill="white"/>
</clipPath>
</defs>
</svg>
